<svg width="175" height="175" viewBox="0 0 175 175" fill="none" xmlns="http://www.w3.org/2000/svg">
<mask id="path-1-inside-1_5_21" fill="white">
<path d="M0 87.5V175H87.5H175V87.5V2.98023e-06H87.5H0V87.5ZM77 36.7938C77.7219 39.1344 77.8969 39.55 79.0781 42.1531C80.8062 45.8938 83.475 48.6719 88.7031 52.1281C90.7156 53.4625 91.9625 54.6 92.5094 55.6281C93.1656 56.8094 93.2094 56.4813 91.6781 63.1531C91.4156 64.2688 91.2187 65.7563 91.2187 66.4344C91.2406 70.2188 94.5219 71.8594 96.0531 68.8844C96.6656 67.6813 96.9937 66.5219 97.6719 63.4375C98.9187 57.6406 99.925 55.3 102.156 52.9813C102.528 52.5656 102.812 52.2156 102.769 52.1938C102.747 52.1719 102.353 51.9094 101.937 51.625C100.581 50.7281 99.5312 49.1094 99.5312 47.9063C99.5312 46.9438 100.078 47.0313 103.031 48.475C105.853 49.8531 107.341 50.1813 112.284 50.5313C114.581 50.6844 115.194 50.8156 115.719 51.1875L116.375 51.6688L117.797 51.2094C119.612 50.6188 120.859 50.6188 121.931 51.2531C123.397 52.0844 123.703 52.6969 123.681 54.7531C123.659 55.7375 123.55 56.8094 123.419 57.1375C123.112 57.9031 122.5 57.9469 122.5 57.2031C122.5 55.2563 120.531 54.3375 118.562 55.3438C118.081 55.5844 117.687 55.825 117.687 55.8688C117.687 55.9125 118.169 55.8906 118.737 55.825C120.269 55.6938 121.844 56.5469 121.844 57.5094C121.844 57.5969 120.925 57.6625 119.831 57.6625C118.059 57.6406 117.644 57.7281 116.594 58.2094C114.8 59.0625 112.787 60.6813 111.322 62.4094C109.769 64.2688 109.637 64.7938 111.081 63.4156C112.262 62.2563 113.291 61.4688 113.553 61.4688C113.837 61.4688 113.794 62.0813 113.444 62.6281C113.181 63.0438 112.525 64.925 111.978 66.8281C111.869 67.1781 111.737 68.2281 111.672 69.125C111.584 70.7219 111.584 70.7438 111.869 69.8906C112.219 68.7969 112.7 68.7531 112.919 69.8469C113.181 71.1594 113.837 72.2094 115.369 73.8719C117.184 75.8188 117.469 76.4969 117.469 78.7938C117.469 79.8875 117.644 81.2438 117.906 82.2281C118.628 84.9406 118.409 86.0781 117.359 85.0938L116.834 84.6125L116.703 85.4C116.484 86.5156 116.047 86.8 115.434 86.2094C115.15 85.9688 114.866 85.75 114.8 85.75C114.734 85.75 114.625 86.1656 114.559 86.6688C114.209 88.9656 113.575 89.9719 113.181 88.7688C113.05 88.3531 113.028 88.3531 112.831 88.6594C112.722 88.8781 112.547 89.0313 112.437 89.0313C112.044 89.0313 111.344 87.3031 111.344 86.3625C111.344 85.4656 111.475 85.1375 113.356 81.5281C113.903 80.5219 113.75 79.45 112.962 78.5969C112.525 78.0938 112.459 78.0719 112.634 78.4656C113.094 79.3844 112.897 80.4344 111.847 82.6219C110.906 84.6125 110.819 84.8969 110.819 86.5156C110.797 88.4188 111.125 89.25 112.875 91.9188C113.991 93.5813 113.641 93.8656 111.65 92.8594C111.059 92.5531 110.556 92.3125 110.534 92.3125C110.491 92.3125 110.469 92.6406 110.469 93.0125C110.469 93.9969 110.884 95.3969 111.278 95.8563C111.584 96.2063 111.584 96.25 111.278 96.3813C110.512 96.6656 108.281 93.1438 108.281 91.6563C108.281 91.4375 108.172 91.175 108.041 91.0875C107.734 90.9125 107.931 92.4875 108.412 94.2375C108.981 96.1844 110.403 97.4094 112.481 97.6719C112.984 97.7375 113.772 97.9125 114.187 98.0219C114.822 98.2188 115.128 98.175 115.937 97.8031C116.528 97.5406 116.681 97.4094 116.331 97.475C115.828 97.5844 115.719 97.5188 115.587 97.0375C115.456 96.4469 115.194 96.3156 114.953 96.6875C114.691 97.125 114.428 96.8844 113.881 95.725C113.159 94.2156 113.159 94.0625 113.947 94.0625H114.603L113.75 92.4438C113.269 91.5688 112.941 90.7813 113.028 90.7156C113.094 90.6281 113.378 90.6281 113.619 90.6938C114.034 90.7813 114.144 90.6281 114.581 89.2938C114.844 88.4844 115.062 87.6313 115.062 87.4344C115.062 86.975 115.478 86.7344 115.784 87.0406C115.916 87.1719 116.244 87.2813 116.528 87.2813C116.878 87.2813 117.119 87.5219 117.425 88.2C117.666 88.725 118.147 89.425 118.541 89.775C119.328 90.5406 119.372 90.6938 118.781 90.8469C118.212 91 118.234 91.5906 118.847 93.0344C119.984 95.55 121.756 96.1844 126.372 95.7031C127.772 95.55 128.012 95.5938 128.712 96.0313C129.828 96.7094 130.2 97.5188 130.112 99.1375C130.069 99.8813 129.959 100.516 129.828 100.559C129.719 100.581 129.412 100.166 129.194 99.5969L128.778 98.5906L128.516 99.6188C128.166 100.997 127.837 101.303 127.531 100.538C127.422 100.209 127.312 99.7063 127.312 99.4C127.312 99.1156 127.225 98.875 127.094 98.875C126.984 98.875 126.897 98.9406 126.897 99.0281C127.006 99.6406 126.831 99.75 126 99.6188C125.519 99.5313 124.534 99.5969 123.812 99.75C122.675 99.9906 122.434 99.9906 121.975 99.6625L121.428 99.3125L121.756 100.122C122.15 101.019 122.019 102.025 121.472 102.638C120.991 103.184 120.75 103.141 120.75 102.484C120.75 101.806 120.487 101.784 120.203 102.419C120.072 102.703 119.809 102.944 119.612 102.988C119.306 103.053 119.219 102.922 119.219 102.397C119.219 101.478 118.978 101.544 118.475 102.594C117.972 103.644 117.644 103.622 117.381 102.528C117.206 101.872 117.097 101.741 116.703 101.85C116.462 101.916 115.981 101.872 115.675 101.741C115.281 101.588 114.822 101.609 114.275 101.741C113.247 102.047 111.978 101.741 110.447 100.822L109.287 100.144L108.456 100.625C107.8 100.997 107.056 101.15 105.219 101.259C103.381 101.391 102.725 101.522 102.397 101.806C102.156 102.025 101.806 102.156 101.653 102.091C101.237 101.938 101.019 100.1 101.281 99.0719C101.697 97.5844 102.353 97.2781 103.819 97.8906C104.781 98.2844 105.437 97.9781 105.437 97.0813C105.437 96.6219 104.672 94.2156 104.431 93.8656C104.387 93.8219 104.103 94.1063 103.775 94.4781C103.119 95.2656 102.178 95.8125 101.5 95.8125C100.975 95.8125 100.975 95.7906 101.5 94.2813C101.894 93.1875 102.091 90.8031 101.828 90.5188C101.762 90.475 101.084 90.5188 100.297 90.6281C99.5094 90.7375 98.7875 90.7813 98.7219 90.6938C98.6344 90.6281 98.7875 90.3438 99.0281 90.0594C99.7719 89.2719 99.9687 88.6813 99.9687 87.4125C99.9687 86.1656 99.5531 84.1969 99.0937 83.3C98.7219 82.5781 97.0812 80.9375 96.7531 80.9375C96.5344 80.9375 96.5781 81.1781 96.9281 81.8344C97.1687 82.3375 97.5187 83.1906 97.6937 83.7594C98.1531 85.2031 98.6781 88.1781 98.5031 88.4406C98.4156 88.5719 97.3 88.5938 95.3312 88.5063C91.3281 88.3094 90.3875 87.8938 87.3906 85.0281C86.9094 84.5688 85.8812 83.825 85.0937 83.3875C83.6937 82.6 83.6281 82.5781 81.3312 82.5781C79.5375 82.5781 78.9687 82.5125 78.9687 82.2938C78.9687 81.725 79.8219 80.3469 80.7625 79.4281C81.5719 78.5969 81.6156 78.4875 81.1562 78.6406C79.5812 79.1219 77.8094 80.5656 73.8937 84.525C69.5844 88.9 69.4094 89.1844 69.6719 90.7813C69.7812 91.4813 69.7594 91.6563 69.4969 91.6563C68.8844 91.6563 68.1406 90.3219 68.1625 89.2719C68.1844 88.5719 68.1406 88.4188 67.9656 88.7031C67.7906 89.0531 67.8344 89.6656 68.1625 91.5906C68.3375 92.5094 68.0094 92.5094 67.1562 91.6344C66.7406 91.175 66.5 90.7156 66.5 90.3C66.5 89.9063 66.4125 89.7094 66.2594 89.7969C66.1281 89.8844 66.0625 90.3 66.1062 90.7594C66.15 91.3281 66.0844 91.5469 65.8437 91.5469C65.4062 91.5469 64.5094 89.9063 64.5969 89.2938C64.6844 88.8781 64.5969 88.8125 64.0062 88.8125C63.6344 88.8125 62.7812 88.6594 62.125 88.4625C60.0031 87.85 57.9031 87.5219 57.0937 87.6969C56.35 87.85 56.3719 87.8719 57.6187 88.025C58.3406 88.1125 59.1719 88.2875 59.4781 88.3969L60.025 88.6156L59.0406 89.4688C56.8969 91.2844 55.4969 94.4125 56 96.2063C56.3281 97.4094 56.2844 97.5625 55.5187 97.9125C55.0375 98.1313 54.9719 98.1969 55.3437 98.0875C55.65 98.0219 56.2844 97.9125 56.7656 97.8469C57.2469 97.8031 57.9469 97.6063 58.3187 97.4094C58.9531 97.0813 59.0844 97.1031 60.375 97.5406C62.2781 98.1969 62.4969 98.35 62.9125 99.1375C63.4156 100.122 63.4156 102.681 62.8906 103.25C62.4094 103.797 61.9062 103.819 61.9062 103.294C61.9062 103.075 61.7094 103.228 61.425 103.731C60.7469 104.913 60.375 104.803 60.375 103.469C60.375 102.244 60.1125 102.069 59.6312 102.966C59.4562 103.316 59.0187 103.797 58.6687 104.059C57.925 104.606 57.7062 104.409 57.9031 103.403C58.0562 102.616 57.2469 102.309 55.4531 102.484C54.6656 102.572 53.7469 102.528 53.1781 102.375C52.0844 102.091 50.4219 100.647 50.225 99.8375C50.0719 99.2906 50.05 99.2906 49.525 99.6188C49.0437 99.9469 48.9781 99.9469 48.8469 99.6406C48.7812 99.4438 48.7812 98.7 48.8687 97.9781C48.9562 97.125 48.9125 96.7094 48.7812 96.7969C48.4969 96.9719 48.4969 94.9156 48.7812 93.3844C49.2625 90.8688 52.2594 85.8813 54.0094 84.7219C54.5125 84.3938 55.0812 84.2188 55.7156 84.2188C56.9625 84.2188 58.7562 83.6938 60.4187 82.8406C61.6 82.25 61.8625 81.9656 63.1312 80.0188C63.8969 78.8375 64.5312 77.8094 64.5312 77.7656C64.5312 77.7219 63.875 77.9406 63.0875 78.225C61.3156 78.8594 58.1 79.275 56.3719 79.1C54.7094 78.925 52.8719 78.0063 51.8219 76.8031C51.0344 75.9281 50.9687 75.7531 50.9687 74.55C50.9687 71.7719 52.6312 70.1531 56.1531 69.475C57.2031 69.2781 58.2312 68.9281 58.6906 68.6219C59.1062 68.3375 60.1562 67.8781 61.0094 67.5938C62.6937 67.0688 63.2187 66.4563 63.2187 65.1438C63.2187 64.2906 62.2781 63.4375 61.3375 63.4375C60.7687 63.4375 60.6156 63.3281 60.5281 62.9344C60.4625 62.6281 60.4187 62.7156 60.3969 63.2406C60.375 64.2906 59.6969 64.9688 58.7125 64.9688C58.2969 64.9688 57.75 64.8813 57.5312 64.75C57.225 64.575 57.0719 64.6406 56.8094 65.0563C56.6125 65.3406 56.3062 65.7344 56.1094 65.9313C55.65 66.3688 54.4687 66.4125 54.4687 65.975C54.4687 65.6906 54.3812 65.6906 53.725 65.9531C52.8719 66.325 51.625 66.0406 51.625 65.4719C51.625 65.2969 51.5375 65.2094 51.4281 65.275C51.1 65.4938 49.175 64.7063 49.0656 64.3344C49.0219 64.1156 48.5625 63.8313 48.0375 63.6781C46.6594 63.2844 45.8062 62.6938 45.1719 61.7094C44.6469 60.8344 44.4062 59.2813 44.8219 59.2813C44.9312 59.2813 45.5219 59.8063 46.1125 60.4188L47.2281 61.5781L48.825 61.6438C50.4219 61.7313 51.5375 61.5781 53.8125 60.9656C58.6906 59.6313 59.5219 59.4563 61.0312 59.4344C62.6937 59.4125 63.6344 59.6969 64.6187 60.5719C65.2531 61.1188 65.8437 62.475 65.8437 63.3281C65.8437 64.2688 65.625 64.75 64.5969 65.9969C63.7219 67.0906 63.9187 67.2438 64.9031 66.2156C65.625 65.4719 66.5 63.8969 66.5 63.3281C66.5 62.825 66.8719 62.9344 67.2875 63.5469C67.9 64.4875 67.6594 66.675 66.85 67.3531C66.3031 67.8125 66.4125 67.9656 67.375 68.1188C68.3375 68.2719 69.7156 69.3438 69.475 69.7375C69.3875 69.8688 69.0156 69.9125 68.5781 69.8469C68.075 69.7594 67.5281 69.8688 66.8281 70.2188C66.2594 70.4813 65.4062 70.8313 64.9031 71.0063L63.9844 71.2906H64.8156C66.8719 71.3344 64.3125 72.8219 62.1906 72.8438C60.8344 72.8438 60.8125 72.8438 58.1875 71.4C57.5094 71.0281 56.8094 71.0281 55.6719 71.3781C53.025 72.2094 52.3906 73.2813 53.3969 75.2063C54.0312 76.3875 55.2125 77 56.8969 77C58.5594 77 61.1844 76.2781 63.1094 75.2938C67.2219 73.1938 68.6875 72.5375 71.0937 71.75C74.1562 70.7219 75.3594 70.6344 76.65 71.4C78.5094 72.4719 79.7562 72.7344 82.7969 72.7125C84.9625 72.7125 85.8375 72.625 86.5156 72.3406C87.2594 72.0125 87.2812 71.9906 86.7344 72.0781C84.1312 72.5594 80.1719 72.3844 78.9906 71.75C78.7937 71.6406 78.2906 71.4 77.8531 71.2031C77.4156 71.0063 76.65 70.525 76.1906 70.1094C74.7469 68.8844 74.1125 66.4344 75.4031 67.1125C75.7969 67.3313 78.0937 67.8125 78.0937 67.6813C78.0937 67.6594 77.4594 67.2656 76.6719 66.85C75.9062 66.4125 74.9219 65.625 74.4844 65.1C73.4344 63.8313 72.45 61.0313 73.0406 61.0313C73.15 61.0313 73.6531 61.2719 74.2 61.5781C74.725 61.8625 75.6 62.2563 76.1469 62.4531L77.1094 62.7813L76.4531 62.3C74.9656 61.1844 73.7625 59.8938 73.1937 58.7563C72.5812 57.5531 72.1219 55.1906 72.45 54.9938C72.5375 54.9281 72.8875 55.0594 73.2375 55.3C73.8937 55.7594 75.075 56.3063 75.9062 56.5469C76.5187 56.7219 76.4531 56.6563 75.0312 55.4969C73.7406 54.4906 72.7562 52.8063 72.2094 50.7063C71.9469 49.7656 71.75 48.9125 71.75 48.7813C71.75 48.3875 72.3406 48.5625 72.6906 49.0438C72.8656 49.3281 73.3469 49.7438 73.7406 49.9625L74.4625 50.3781L74.0031 49.7438C72.6687 47.8625 72.1 45.5438 72.3625 43.2469C72.5156 41.9563 72.8 41.65 73.1719 42.3719C73.6312 43.225 74.7031 44.8438 74.8344 44.8438C74.9219 44.8438 74.8562 44.4719 74.6812 44.0125C74.1344 42.4375 74.3312 39.6813 75.25 36.5531C76.0156 33.9063 76.0594 33.9063 77 36.7938ZM83.9781 36.0281C84.1094 36.4875 84.2187 36.9469 84.2187 37.0344C84.2187 37.4281 85.4 39.7688 86.3406 41.2125C88.2656 44.2313 90.2562 46.3094 94.3031 49.5688C95.7031 50.6844 97.1469 51.9094 97.5187 52.2813C98.4594 53.2219 98.7656 54.425 98.4156 55.8688C98.175 56.875 97.9344 57.4875 96.5344 60.5938C96.075 61.5781 94.8062 65.4063 94.675 66.1281C94.5875 66.6531 94.2812 66.6969 93.975 66.2375C93.8219 65.9531 93.9094 64.75 94.3469 61.6438C94.675 59.325 94.9375 56.875 94.9375 56.2188C94.9375 54.7313 94.7844 54.5563 91.175 51.8C86.6031 48.3219 84.4375 45.8719 83.2344 42.7656C82.4687 40.8625 82.7094 35.2188 83.5406 35.2188C83.6719 35.2188 83.8687 35.5906 83.9781 36.0281ZM84.7 85.1594C86.7562 86.1656 87.9156 87.325 88.8344 89.2063C89.2281 90.0156 89.6875 90.8469 89.8625 91.0438C90.0375 91.2625 90.125 91.5688 90.0594 91.7656C89.95 92.0281 89.7969 92.05 89.3156 91.8531L88.7031 91.6344L89.4469 92.4C90.1031 93.0781 90.1469 93.1875 89.8187 93.3188C89.3156 93.5156 87.85 93.0563 87.3687 92.575C87.0844 92.3125 86.9531 92.2906 86.8875 92.4875C86.7781 92.8594 86.1875 92.8156 85.7281 92.4C85.3562 92.0719 85.2906 92.0719 84.7437 92.5094C84.4156 92.7719 83.9125 92.9688 83.6281 92.9688C83.3219 92.9688 83.1687 93.0563 83.2344 93.1875C83.3 93.2969 83.5406 93.4063 83.7594 93.4063C83.9781 93.4063 84.525 93.8438 84.9844 94.4125C85.4219 94.9594 86.3187 95.7031 86.975 96.0531C88.2219 96.775 88.3094 96.8844 87.8937 97.3C87.6969 97.4969 87.6969 97.5625 87.8719 97.5625C88.025 97.5625 88.2 97.4531 88.2656 97.3438C88.55 96.9063 90.125 96.25 90.9344 96.25C91.3937 96.25 92.1156 96.1625 92.5312 96.0313C93.4281 95.7688 94.5656 96.075 95.375 96.775C95.6812 97.0375 96.1844 97.3875 96.5125 97.5406C97.2781 97.9344 97.6281 98.8531 97.65 100.538C97.6719 102.113 97.475 102.463 96.9062 101.763C96.425 101.172 96.25 101.15 96.25 101.719C96.25 101.959 96.0969 102.156 95.9219 102.156C95.7469 102.156 95.5937 101.981 95.5937 101.763C95.5937 101.544 95.4625 101.238 95.3312 101.106C95.1125 100.888 95.0031 101.019 94.8281 101.653C94.5656 102.594 94.0406 102.747 93.8437 101.938C93.7344 101.5 93.5375 101.369 92.75 101.238C92.0719 101.106 91.5906 101.15 91.2406 101.325C90.3875 101.784 87.5875 101.675 86.1656 101.128C84.7437 100.581 83.1031 99.7063 82.0969 98.9406L81.375 98.4156L80.3469 98.875C79.1437 99.4 78.7062 99.2031 79.275 98.35C79.8219 97.5188 79.7125 97.3438 78.6406 97.3438C77.525 97.3438 77.4375 97.2125 78.1594 96.5781C78.4219 96.3375 78.5531 96.2063 78.4437 96.2938C78.1156 96.5563 77.4375 96.5125 77.4375 96.25C77.4375 96.1188 77.5687 95.7906 77.7437 95.5281C77.9187 95.2656 78.1156 94.8281 78.1812 94.5656C78.3125 94.1938 78.2469 94.1281 77.9187 94.2156C77.5906 94.2813 77.4375 94.0844 77.1094 93.1219C76.6062 91.5906 76.7375 91.1531 77.7 91.3281C78.0937 91.4156 78.7062 91.3719 79.0344 91.2406C80.1281 90.825 79.7125 89.0531 78.05 87.1063C77.3281 86.2531 77.3062 85.9906 77.8969 85.225C78.4875 84.4594 79.4062 84.2188 81.3969 84.3063C82.775 84.35 83.3219 84.4813 84.7 85.1594ZM55.1031 110.272C55.6937 110.403 56.6125 110.797 57.1156 111.169L58.0344 111.825L57.3344 112.503C56.7437 113.094 56.5906 113.159 56.2625 112.919C54.3594 111.541 52.0625 111.716 50.5969 113.378C49.0656 115.128 49.5469 117.884 51.6031 119.088C52.4562 119.569 54.5125 119.678 55.3 119.241C55.7375 119.022 55.7812 118.825 55.7812 117.359V115.719H56.7656H57.7719L57.7062 117.95L57.6406 120.203L56.6562 120.75C55.8031 121.231 55.4094 121.297 53.5937 121.297C51.2969 121.297 50.3562 120.991 49.1969 119.809C46.55 117.184 47.1844 112.503 50.3781 110.863C51.9969 110.031 53.2656 109.878 55.1031 110.272ZM114.012 110.841C115.894 111.869 116.878 113.553 116.878 115.719C116.878 118.213 115.544 120.203 113.247 121.078C111.956 121.559 109.419 121.45 108.172 120.859C106.072 119.831 104.847 117.644 105.066 115.281C105.219 113.422 105.941 112.241 107.691 110.906C109.047 109.9 112.197 109.856 114.012 110.841ZM67.6594 110.775C70.1312 112 70.3719 115.938 68.0531 117.316L67.3969 117.709L68.4906 119.241C70.0437 121.406 70.0437 121.406 68.7312 121.406H67.6375L66.5219 119.766L65.3844 118.125H63.9625H62.5625V119.766V121.406H61.4687H60.375V115.806V110.228L63.6125 110.294C66.2375 110.338 66.9812 110.425 67.6594 110.775ZM73.9375 112.875L75.5344 115.5L77.0875 112.919L78.6625 110.359L79.6906 110.294C80.2594 110.25 80.7187 110.294 80.7187 110.381C80.7187 110.469 79.7781 112.066 78.6406 113.947L76.5625 117.359V119.394V121.406H75.4687H74.375V119.394V117.403L72.2094 113.816L70.0219 110.25H71.1812H72.3406L73.9375 112.875ZM88.3969 110.513C89.5781 110.906 90.3656 111.563 90.8031 112.525C91.6125 114.341 91.0656 116.331 89.4469 117.403C88.6156 117.95 88.3094 118.016 86.275 118.081L84 118.169V119.809V121.428L82.9719 121.363L81.9219 121.297L81.8562 115.763L81.8125 110.25H84.7219C86.3625 110.25 87.9812 110.359 88.3969 110.513ZM95.2 112.481L95.2656 114.734L98.0656 114.8L100.844 114.866V112.547V110.25H101.937H103.031L102.987 115.763L102.922 121.297L101.894 121.363L100.844 121.428V119.022V116.594H98H95.1562V119V121.406H94.1719H93.1875V115.828V110.25H94.1719H95.1344L95.2 112.481ZM123.747 113.925L126.656 117.491V113.881V110.25H127.75H128.844V115.828V121.406H127.969C127.116 121.406 127.072 121.363 124.206 117.819L121.297 114.209L121.187 117.753L121.078 121.297L120.05 121.363L119 121.428V115.828V110.228L119.919 110.294C120.837 110.359 120.903 110.425 123.747 113.925ZM56.5031 128.472C57.8594 129.063 58.9312 130.025 59.6094 131.294C60.1781 132.3 60.2437 132.694 60.2656 134.203C60.2656 137.025 59.15 138.819 56.6562 139.978C55.5844 140.459 55.1031 140.525 52.1281 140.613L48.7812 140.7V134.313V127.925L52.2375 128.013C54.8187 128.078 55.8687 128.188 56.5031 128.472ZM63.9844 131.469C65.1656 133.394 66.1937 135.013 66.2594 135.056C66.3469 135.122 67.375 133.547 68.5781 131.556C70.3937 128.581 70.8531 127.969 71.2906 127.969C71.5969 127.969 71.75 128.078 71.6844 128.231C71.6187 128.384 70.4812 130.288 69.1469 132.453L66.7187 136.391V138.513C66.7187 140.503 66.6969 140.656 66.2812 140.656C65.8656 140.656 65.8437 140.503 65.8437 138.513V136.369L63.3281 132.278C61.95 130.025 60.8125 128.144 60.8125 128.078C60.8125 128.013 61.0531 127.969 61.3375 127.969C61.775 127.969 62.1906 128.538 63.9844 131.469ZM78.6625 133.263L82.7969 138.556L82.8625 133.263L82.9062 127.969H83.4531H84L83.9562 134.247C83.8906 139.891 83.8469 140.547 83.5406 140.613C83.2781 140.656 81.8344 138.994 78.9469 135.275L74.7031 129.894L74.6375 135.275C74.5937 140.481 74.5719 140.656 74.1562 140.656C73.7406 140.656 73.7187 140.481 73.7187 134.313C73.7187 128.319 73.7406 127.969 74.1125 127.969C74.375 127.969 75.95 129.806 78.6625 133.263ZM95.6375 134.094C97.1687 137.397 98.4156 140.241 98.4375 140.372C98.4375 140.525 98.2406 140.656 97.9781 140.656C97.6281 140.656 97.3437 140.284 96.7312 138.906L95.9437 137.156H92.3125H88.7031L87.8937 138.906C87.2812 140.263 86.9969 140.656 86.6469 140.656C86.3844 140.656 86.1875 140.569 86.1875 140.459C86.1875 140.263 90.8687 129.959 91.5906 128.559C91.8094 128.122 92.0281 127.969 92.3781 128.013C92.7719 128.056 93.3406 129.128 95.6375 134.094ZM106.597 128.319C107.778 128.713 108.259 129.172 107.887 129.544C107.691 129.741 107.428 129.697 106.816 129.413C104.803 128.45 101.85 128.844 101.172 130.156C100.253 131.906 101.084 132.913 104.125 133.788C107.734 134.816 108.5 135.428 108.5 137.288C108.5 138.556 108.019 139.388 106.881 140.044C106.116 140.459 105.678 140.547 104.016 140.547C102.331 140.547 101.872 140.459 100.975 140C99.75 139.366 99.2906 138.841 99.6625 138.469C99.8375 138.294 100.144 138.381 100.712 138.775C102.944 140.284 106.728 139.913 107.428 138.097C107.953 136.719 107.1 135.647 105.022 135.056C104.344 134.881 103.272 134.575 102.637 134.4C101.937 134.203 101.15 133.766 100.669 133.328C99.925 132.65 99.8594 132.497 99.8594 131.403C99.8594 129.916 100.341 129.172 101.719 128.45C102.9 127.859 105.066 127.794 106.597 128.319ZM122.522 131.556C123.703 133.459 124.709 135.056 124.775 135.122C124.819 135.166 125.759 133.766 126.831 131.972C129.347 127.881 129.325 127.903 129.872 128.013C130.309 128.078 130.112 128.472 127.859 132.125L125.344 136.172V138.403V140.656H124.797H124.25V138.425V136.216L121.8 132.191C120.444 129.981 119.306 128.341 119.262 128.516C119.197 128.778 118.781 128.844 117.009 128.844H114.844L114.8 134.684L114.734 140.547L114.253 140.613L113.75 140.678V134.772V128.844H111.562C109.506 128.844 109.375 128.822 109.375 128.406C109.375 127.969 109.484 127.969 114.887 128.013L120.4 128.078L122.522 131.556Z"/>
</mask>
<path d="M0 87.5V175H87.5H175V87.5V2.98023e-06H87.5H0V87.5ZM77 36.7938C77.7219 39.1344 77.8969 39.55 79.0781 42.1531C80.8062 45.8938 83.475 48.6719 88.7031 52.1281C90.7156 53.4625 91.9625 54.6 92.5094 55.6281C93.1656 56.8094 93.2094 56.4813 91.6781 63.1531C91.4156 64.2688 91.2187 65.7563 91.2187 66.4344C91.2406 70.2188 94.5219 71.8594 96.0531 68.8844C96.6656 67.6813 96.9937 66.5219 97.6719 63.4375C98.9187 57.6406 99.925 55.3 102.156 52.9813C102.528 52.5656 102.812 52.2156 102.769 52.1938C102.747 52.1719 102.353 51.9094 101.937 51.625C100.581 50.7281 99.5312 49.1094 99.5312 47.9063C99.5312 46.9438 100.078 47.0313 103.031 48.475C105.853 49.8531 107.341 50.1813 112.284 50.5313C114.581 50.6844 115.194 50.8156 115.719 51.1875L116.375 51.6688L117.797 51.2094C119.612 50.6188 120.859 50.6188 121.931 51.2531C123.397 52.0844 123.703 52.6969 123.681 54.7531C123.659 55.7375 123.55 56.8094 123.419 57.1375C123.112 57.9031 122.5 57.9469 122.5 57.2031C122.5 55.2563 120.531 54.3375 118.562 55.3438C118.081 55.5844 117.687 55.825 117.687 55.8688C117.687 55.9125 118.169 55.8906 118.737 55.825C120.269 55.6938 121.844 56.5469 121.844 57.5094C121.844 57.5969 120.925 57.6625 119.831 57.6625C118.059 57.6406 117.644 57.7281 116.594 58.2094C114.8 59.0625 112.787 60.6813 111.322 62.4094C109.769 64.2688 109.637 64.7938 111.081 63.4156C112.262 62.2563 113.291 61.4688 113.553 61.4688C113.837 61.4688 113.794 62.0813 113.444 62.6281C113.181 63.0438 112.525 64.925 111.978 66.8281C111.869 67.1781 111.737 68.2281 111.672 69.125C111.584 70.7219 111.584 70.7438 111.869 69.8906C112.219 68.7969 112.7 68.7531 112.919 69.8469C113.181 71.1594 113.837 72.2094 115.369 73.8719C117.184 75.8188 117.469 76.4969 117.469 78.7938C117.469 79.8875 117.644 81.2438 117.906 82.2281C118.628 84.9406 118.409 86.0781 117.359 85.0938L116.834 84.6125L116.703 85.4C116.484 86.5156 116.047 86.8 115.434 86.2094C115.15 85.9688 114.866 85.75 114.8 85.75C114.734 85.75 114.625 86.1656 114.559 86.6688C114.209 88.9656 113.575 89.9719 113.181 88.7688C113.05 88.3531 113.028 88.3531 112.831 88.6594C112.722 88.8781 112.547 89.0313 112.437 89.0313C112.044 89.0313 111.344 87.3031 111.344 86.3625C111.344 85.4656 111.475 85.1375 113.356 81.5281C113.903 80.5219 113.75 79.45 112.962 78.5969C112.525 78.0938 112.459 78.0719 112.634 78.4656C113.094 79.3844 112.897 80.4344 111.847 82.6219C110.906 84.6125 110.819 84.8969 110.819 86.5156C110.797 88.4188 111.125 89.25 112.875 91.9188C113.991 93.5813 113.641 93.8656 111.65 92.8594C111.059 92.5531 110.556 92.3125 110.534 92.3125C110.491 92.3125 110.469 92.6406 110.469 93.0125C110.469 93.9969 110.884 95.3969 111.278 95.8563C111.584 96.2063 111.584 96.25 111.278 96.3813C110.512 96.6656 108.281 93.1438 108.281 91.6563C108.281 91.4375 108.172 91.175 108.041 91.0875C107.734 90.9125 107.931 92.4875 108.412 94.2375C108.981 96.1844 110.403 97.4094 112.481 97.6719C112.984 97.7375 113.772 97.9125 114.187 98.0219C114.822 98.2188 115.128 98.175 115.937 97.8031C116.528 97.5406 116.681 97.4094 116.331 97.475C115.828 97.5844 115.719 97.5188 115.587 97.0375C115.456 96.4469 115.194 96.3156 114.953 96.6875C114.691 97.125 114.428 96.8844 113.881 95.725C113.159 94.2156 113.159 94.0625 113.947 94.0625H114.603L113.75 92.4438C113.269 91.5688 112.941 90.7813 113.028 90.7156C113.094 90.6281 113.378 90.6281 113.619 90.6938C114.034 90.7813 114.144 90.6281 114.581 89.2938C114.844 88.4844 115.062 87.6313 115.062 87.4344C115.062 86.975 115.478 86.7344 115.784 87.0406C115.916 87.1719 116.244 87.2813 116.528 87.2813C116.878 87.2813 117.119 87.5219 117.425 88.2C117.666 88.725 118.147 89.425 118.541 89.775C119.328 90.5406 119.372 90.6938 118.781 90.8469C118.212 91 118.234 91.5906 118.847 93.0344C119.984 95.55 121.756 96.1844 126.372 95.7031C127.772 95.55 128.012 95.5938 128.712 96.0313C129.828 96.7094 130.2 97.5188 130.112 99.1375C130.069 99.8813 129.959 100.516 129.828 100.559C129.719 100.581 129.412 100.166 129.194 99.5969L128.778 98.5906L128.516 99.6188C128.166 100.997 127.837 101.303 127.531 100.538C127.422 100.209 127.312 99.7063 127.312 99.4C127.312 99.1156 127.225 98.875 127.094 98.875C126.984 98.875 126.897 98.9406 126.897 99.0281C127.006 99.6406 126.831 99.75 126 99.6188C125.519 99.5313 124.534 99.5969 123.812 99.75C122.675 99.9906 122.434 99.9906 121.975 99.6625L121.428 99.3125L121.756 100.122C122.15 101.019 122.019 102.025 121.472 102.638C120.991 103.184 120.75 103.141 120.75 102.484C120.75 101.806 120.487 101.784 120.203 102.419C120.072 102.703 119.809 102.944 119.612 102.988C119.306 103.053 119.219 102.922 119.219 102.397C119.219 101.478 118.978 101.544 118.475 102.594C117.972 103.644 117.644 103.622 117.381 102.528C117.206 101.872 117.097 101.741 116.703 101.85C116.462 101.916 115.981 101.872 115.675 101.741C115.281 101.588 114.822 101.609 114.275 101.741C113.247 102.047 111.978 101.741 110.447 100.822L109.287 100.144L108.456 100.625C107.8 100.997 107.056 101.15 105.219 101.259C103.381 101.391 102.725 101.522 102.397 101.806C102.156 102.025 101.806 102.156 101.653 102.091C101.237 101.938 101.019 100.1 101.281 99.0719C101.697 97.5844 102.353 97.2781 103.819 97.8906C104.781 98.2844 105.437 97.9781 105.437 97.0813C105.437 96.6219 104.672 94.2156 104.431 93.8656C104.387 93.8219 104.103 94.1063 103.775 94.4781C103.119 95.2656 102.178 95.8125 101.5 95.8125C100.975 95.8125 100.975 95.7906 101.5 94.2813C101.894 93.1875 102.091 90.8031 101.828 90.5188C101.762 90.475 101.084 90.5188 100.297 90.6281C99.5094 90.7375 98.7875 90.7813 98.7219 90.6938C98.6344 90.6281 98.7875 90.3438 99.0281 90.0594C99.7719 89.2719 99.9687 88.6813 99.9687 87.4125C99.9687 86.1656 99.5531 84.1969 99.0937 83.3C98.7219 82.5781 97.0812 80.9375 96.7531 80.9375C96.5344 80.9375 96.5781 81.1781 96.9281 81.8344C97.1687 82.3375 97.5187 83.1906 97.6937 83.7594C98.1531 85.2031 98.6781 88.1781 98.5031 88.4406C98.4156 88.5719 97.3 88.5938 95.3312 88.5063C91.3281 88.3094 90.3875 87.8938 87.3906 85.0281C86.9094 84.5688 85.8812 83.825 85.0937 83.3875C83.6937 82.6 83.6281 82.5781 81.3312 82.5781C79.5375 82.5781 78.9687 82.5125 78.9687 82.2938C78.9687 81.725 79.8219 80.3469 80.7625 79.4281C81.5719 78.5969 81.6156 78.4875 81.1562 78.6406C79.5812 79.1219 77.8094 80.5656 73.8937 84.525C69.5844 88.9 69.4094 89.1844 69.6719 90.7813C69.7812 91.4813 69.7594 91.6563 69.4969 91.6563C68.8844 91.6563 68.1406 90.3219 68.1625 89.2719C68.1844 88.5719 68.1406 88.4188 67.9656 88.7031C67.7906 89.0531 67.8344 89.6656 68.1625 91.5906C68.3375 92.5094 68.0094 92.5094 67.1562 91.6344C66.7406 91.175 66.5 90.7156 66.5 90.3C66.5 89.9063 66.4125 89.7094 66.2594 89.7969C66.1281 89.8844 66.0625 90.3 66.1062 90.7594C66.15 91.3281 66.0844 91.5469 65.8437 91.5469C65.4062 91.5469 64.5094 89.9063 64.5969 89.2938C64.6844 88.8781 64.5969 88.8125 64.0062 88.8125C63.6344 88.8125 62.7812 88.6594 62.125 88.4625C60.0031 87.85 57.9031 87.5219 57.0937 87.6969C56.35 87.85 56.3719 87.8719 57.6187 88.025C58.3406 88.1125 59.1719 88.2875 59.4781 88.3969L60.025 88.6156L59.0406 89.4688C56.8969 91.2844 55.4969 94.4125 56 96.2063C56.3281 97.4094 56.2844 97.5625 55.5187 97.9125C55.0375 98.1313 54.9719 98.1969 55.3437 98.0875C55.65 98.0219 56.2844 97.9125 56.7656 97.8469C57.2469 97.8031 57.9469 97.6063 58.3187 97.4094C58.9531 97.0813 59.0844 97.1031 60.375 97.5406C62.2781 98.1969 62.4969 98.35 62.9125 99.1375C63.4156 100.122 63.4156 102.681 62.8906 103.25C62.4094 103.797 61.9062 103.819 61.9062 103.294C61.9062 103.075 61.7094 103.228 61.425 103.731C60.7469 104.913 60.375 104.803 60.375 103.469C60.375 102.244 60.1125 102.069 59.6312 102.966C59.4562 103.316 59.0187 103.797 58.6687 104.059C57.925 104.606 57.7062 104.409 57.9031 103.403C58.0562 102.616 57.2469 102.309 55.4531 102.484C54.6656 102.572 53.7469 102.528 53.1781 102.375C52.0844 102.091 50.4219 100.647 50.225 99.8375C50.0719 99.2906 50.05 99.2906 49.525 99.6188C49.0437 99.9469 48.9781 99.9469 48.8469 99.6406C48.7812 99.4438 48.7812 98.7 48.8687 97.9781C48.9562 97.125 48.9125 96.7094 48.7812 96.7969C48.4969 96.9719 48.4969 94.9156 48.7812 93.3844C49.2625 90.8688 52.2594 85.8813 54.0094 84.7219C54.5125 84.3938 55.0812 84.2188 55.7156 84.2188C56.9625 84.2188 58.7562 83.6938 60.4187 82.8406C61.6 82.25 61.8625 81.9656 63.1312 80.0188C63.8969 78.8375 64.5312 77.8094 64.5312 77.7656C64.5312 77.7219 63.875 77.9406 63.0875 78.225C61.3156 78.8594 58.1 79.275 56.3719 79.1C54.7094 78.925 52.8719 78.0063 51.8219 76.8031C51.0344 75.9281 50.9687 75.7531 50.9687 74.55C50.9687 71.7719 52.6312 70.1531 56.1531 69.475C57.2031 69.2781 58.2312 68.9281 58.6906 68.6219C59.1062 68.3375 60.1562 67.8781 61.0094 67.5938C62.6937 67.0688 63.2187 66.4563 63.2187 65.1438C63.2187 64.2906 62.2781 63.4375 61.3375 63.4375C60.7687 63.4375 60.6156 63.3281 60.5281 62.9344C60.4625 62.6281 60.4187 62.7156 60.3969 63.2406C60.375 64.2906 59.6969 64.9688 58.7125 64.9688C58.2969 64.9688 57.75 64.8813 57.5312 64.75C57.225 64.575 57.0719 64.6406 56.8094 65.0563C56.6125 65.3406 56.3062 65.7344 56.1094 65.9313C55.65 66.3688 54.4687 66.4125 54.4687 65.975C54.4687 65.6906 54.3812 65.6906 53.725 65.9531C52.8719 66.325 51.625 66.0406 51.625 65.4719C51.625 65.2969 51.5375 65.2094 51.4281 65.275C51.1 65.4938 49.175 64.7063 49.0656 64.3344C49.0219 64.1156 48.5625 63.8313 48.0375 63.6781C46.6594 63.2844 45.8062 62.6938 45.1719 61.7094C44.6469 60.8344 44.4062 59.2813 44.8219 59.2813C44.9312 59.2813 45.5219 59.8063 46.1125 60.4188L47.2281 61.5781L48.825 61.6438C50.4219 61.7313 51.5375 61.5781 53.8125 60.9656C58.6906 59.6313 59.5219 59.4563 61.0312 59.4344C62.6937 59.4125 63.6344 59.6969 64.6187 60.5719C65.2531 61.1188 65.8437 62.475 65.8437 63.3281C65.8437 64.2688 65.625 64.75 64.5969 65.9969C63.7219 67.0906 63.9187 67.2438 64.9031 66.2156C65.625 65.4719 66.5 63.8969 66.5 63.3281C66.5 62.825 66.8719 62.9344 67.2875 63.5469C67.9 64.4875 67.6594 66.675 66.85 67.3531C66.3031 67.8125 66.4125 67.9656 67.375 68.1188C68.3375 68.2719 69.7156 69.3438 69.475 69.7375C69.3875 69.8688 69.0156 69.9125 68.5781 69.8469C68.075 69.7594 67.5281 69.8688 66.8281 70.2188C66.2594 70.4813 65.4062 70.8313 64.9031 71.0063L63.9844 71.2906H64.8156C66.8719 71.3344 64.3125 72.8219 62.1906 72.8438C60.8344 72.8438 60.8125 72.8438 58.1875 71.4C57.5094 71.0281 56.8094 71.0281 55.6719 71.3781C53.025 72.2094 52.3906 73.2813 53.3969 75.2063C54.0312 76.3875 55.2125 77 56.8969 77C58.5594 77 61.1844 76.2781 63.1094 75.2938C67.2219 73.1938 68.6875 72.5375 71.0937 71.75C74.1562 70.7219 75.3594 70.6344 76.65 71.4C78.5094 72.4719 79.7562 72.7344 82.7969 72.7125C84.9625 72.7125 85.8375 72.625 86.5156 72.3406C87.2594 72.0125 87.2812 71.9906 86.7344 72.0781C84.1312 72.5594 80.1719 72.3844 78.9906 71.75C78.7937 71.6406 78.2906 71.4 77.8531 71.2031C77.4156 71.0063 76.65 70.525 76.1906 70.1094C74.7469 68.8844 74.1125 66.4344 75.4031 67.1125C75.7969 67.3313 78.0937 67.8125 78.0937 67.6813C78.0937 67.6594 77.4594 67.2656 76.6719 66.85C75.9062 66.4125 74.9219 65.625 74.4844 65.1C73.4344 63.8313 72.45 61.0313 73.0406 61.0313C73.15 61.0313 73.6531 61.2719 74.2 61.5781C74.725 61.8625 75.6 62.2563 76.1469 62.4531L77.1094 62.7813L76.4531 62.3C74.9656 61.1844 73.7625 59.8938 73.1937 58.7563C72.5812 57.5531 72.1219 55.1906 72.45 54.9938C72.5375 54.9281 72.8875 55.0594 73.2375 55.3C73.8937 55.7594 75.075 56.3063 75.9062 56.5469C76.5187 56.7219 76.4531 56.6563 75.0312 55.4969C73.7406 54.4906 72.7562 52.8063 72.2094 50.7063C71.9469 49.7656 71.75 48.9125 71.75 48.7813C71.75 48.3875 72.3406 48.5625 72.6906 49.0438C72.8656 49.3281 73.3469 49.7438 73.7406 49.9625L74.4625 50.3781L74.0031 49.7438C72.6687 47.8625 72.1 45.5438 72.3625 43.2469C72.5156 41.9563 72.8 41.65 73.1719 42.3719C73.6312 43.225 74.7031 44.8438 74.8344 44.8438C74.9219 44.8438 74.8562 44.4719 74.6812 44.0125C74.1344 42.4375 74.3312 39.6813 75.25 36.5531C76.0156 33.9063 76.0594 33.9063 77 36.7938ZM83.9781 36.0281C84.1094 36.4875 84.2187 36.9469 84.2187 37.0344C84.2187 37.4281 85.4 39.7688 86.3406 41.2125C88.2656 44.2313 90.2562 46.3094 94.3031 49.5688C95.7031 50.6844 97.1469 51.9094 97.5187 52.2813C98.4594 53.2219 98.7656 54.425 98.4156 55.8688C98.175 56.875 97.9344 57.4875 96.5344 60.5938C96.075 61.5781 94.8062 65.4063 94.675 66.1281C94.5875 66.6531 94.2812 66.6969 93.975 66.2375C93.8219 65.9531 93.9094 64.75 94.3469 61.6438C94.675 59.325 94.9375 56.875 94.9375 56.2188C94.9375 54.7313 94.7844 54.5563 91.175 51.8C86.6031 48.3219 84.4375 45.8719 83.2344 42.7656C82.4687 40.8625 82.7094 35.2188 83.5406 35.2188C83.6719 35.2188 83.8687 35.5906 83.9781 36.0281ZM84.7 85.1594C86.7562 86.1656 87.9156 87.325 88.8344 89.2063C89.2281 90.0156 89.6875 90.8469 89.8625 91.0438C90.0375 91.2625 90.125 91.5688 90.0594 91.7656C89.95 92.0281 89.7969 92.05 89.3156 91.8531L88.7031 91.6344L89.4469 92.4C90.1031 93.0781 90.1469 93.1875 89.8187 93.3188C89.3156 93.5156 87.85 93.0563 87.3687 92.575C87.0844 92.3125 86.9531 92.2906 86.8875 92.4875C86.7781 92.8594 86.1875 92.8156 85.7281 92.4C85.3562 92.0719 85.2906 92.0719 84.7437 92.5094C84.4156 92.7719 83.9125 92.9688 83.6281 92.9688C83.3219 92.9688 83.1687 93.0563 83.2344 93.1875C83.3 93.2969 83.5406 93.4063 83.7594 93.4063C83.9781 93.4063 84.525 93.8438 84.9844 94.4125C85.4219 94.9594 86.3187 95.7031 86.975 96.0531C88.2219 96.775 88.3094 96.8844 87.8937 97.3C87.6969 97.4969 87.6969 97.5625 87.8719 97.5625C88.025 97.5625 88.2 97.4531 88.2656 97.3438C88.55 96.9063 90.125 96.25 90.9344 96.25C91.3937 96.25 92.1156 96.1625 92.5312 96.0313C93.4281 95.7688 94.5656 96.075 95.375 96.775C95.6812 97.0375 96.1844 97.3875 96.5125 97.5406C97.2781 97.9344 97.6281 98.8531 97.65 100.538C97.6719 102.113 97.475 102.463 96.9062 101.763C96.425 101.172 96.25 101.15 96.25 101.719C96.25 101.959 96.0969 102.156 95.9219 102.156C95.7469 102.156 95.5937 101.981 95.5937 101.763C95.5937 101.544 95.4625 101.238 95.3312 101.106C95.1125 100.888 95.0031 101.019 94.8281 101.653C94.5656 102.594 94.0406 102.747 93.8437 101.938C93.7344 101.5 93.5375 101.369 92.75 101.238C92.0719 101.106 91.5906 101.15 91.2406 101.325C90.3875 101.784 87.5875 101.675 86.1656 101.128C84.7437 100.581 83.1031 99.7063 82.0969 98.9406L81.375 98.4156L80.3469 98.875C79.1437 99.4 78.7062 99.2031 79.275 98.35C79.8219 97.5188 79.7125 97.3438 78.6406 97.3438C77.525 97.3438 77.4375 97.2125 78.1594 96.5781C78.4219 96.3375 78.5531 96.2063 78.4437 96.2938C78.1156 96.5563 77.4375 96.5125 77.4375 96.25C77.4375 96.1188 77.5687 95.7906 77.7437 95.5281C77.9187 95.2656 78.1156 94.8281 78.1812 94.5656C78.3125 94.1938 78.2469 94.1281 77.9187 94.2156C77.5906 94.2813 77.4375 94.0844 77.1094 93.1219C76.6062 91.5906 76.7375 91.1531 77.7 91.3281C78.0937 91.4156 78.7062 91.3719 79.0344 91.2406C80.1281 90.825 79.7125 89.0531 78.05 87.1063C77.3281 86.2531 77.3062 85.9906 77.8969 85.225C78.4875 84.4594 79.4062 84.2188 81.3969 84.3063C82.775 84.35 83.3219 84.4813 84.7 85.1594ZM55.1031 110.272C55.6937 110.403 56.6125 110.797 57.1156 111.169L58.0344 111.825L57.3344 112.503C56.7437 113.094 56.5906 113.159 56.2625 112.919C54.3594 111.541 52.0625 111.716 50.5969 113.378C49.0656 115.128 49.5469 117.884 51.6031 119.088C52.4562 119.569 54.5125 119.678 55.3 119.241C55.7375 119.022 55.7812 118.825 55.7812 117.359V115.719H56.7656H57.7719L57.7062 117.95L57.6406 120.203L56.6562 120.75C55.8031 121.231 55.4094 121.297 53.5937 121.297C51.2969 121.297 50.3562 120.991 49.1969 119.809C46.55 117.184 47.1844 112.503 50.3781 110.863C51.9969 110.031 53.2656 109.878 55.1031 110.272ZM114.012 110.841C115.894 111.869 116.878 113.553 116.878 115.719C116.878 118.213 115.544 120.203 113.247 121.078C111.956 121.559 109.419 121.45 108.172 120.859C106.072 119.831 104.847 117.644 105.066 115.281C105.219 113.422 105.941 112.241 107.691 110.906C109.047 109.9 112.197 109.856 114.012 110.841ZM67.6594 110.775C70.1312 112 70.3719 115.938 68.0531 117.316L67.3969 117.709L68.4906 119.241C70.0437 121.406 70.0437 121.406 68.7312 121.406H67.6375L66.5219 119.766L65.3844 118.125H63.9625H62.5625V119.766V121.406H61.4687H60.375V115.806V110.228L63.6125 110.294C66.2375 110.338 66.9812 110.425 67.6594 110.775ZM73.9375 112.875L75.5344 115.5L77.0875 112.919L78.6625 110.359L79.6906 110.294C80.2594 110.25 80.7187 110.294 80.7187 110.381C80.7187 110.469 79.7781 112.066 78.6406 113.947L76.5625 117.359V119.394V121.406H75.4687H74.375V119.394V117.403L72.2094 113.816L70.0219 110.25H71.1812H72.3406L73.9375 112.875ZM88.3969 110.513C89.5781 110.906 90.3656 111.563 90.8031 112.525C91.6125 114.341 91.0656 116.331 89.4469 117.403C88.6156 117.95 88.3094 118.016 86.275 118.081L84 118.169V119.809V121.428L82.9719 121.363L81.9219 121.297L81.8562 115.763L81.8125 110.25H84.7219C86.3625 110.25 87.9812 110.359 88.3969 110.513ZM95.2 112.481L95.2656 114.734L98.0656 114.8L100.844 114.866V112.547V110.25H101.937H103.031L102.987 115.763L102.922 121.297L101.894 121.363L100.844 121.428V119.022V116.594H98H95.1562V119V121.406H94.1719H93.1875V115.828V110.25H94.1719H95.1344L95.2 112.481ZM123.747 113.925L126.656 117.491V113.881V110.25H127.75H128.844V115.828V121.406H127.969C127.116 121.406 127.072 121.363 124.206 117.819L121.297 114.209L121.187 117.753L121.078 121.297L120.05 121.363L119 121.428V115.828V110.228L119.919 110.294C120.837 110.359 120.903 110.425 123.747 113.925ZM56.5031 128.472C57.8594 129.063 58.9312 130.025 59.6094 131.294C60.1781 132.3 60.2437 132.694 60.2656 134.203C60.2656 137.025 59.15 138.819 56.6562 139.978C55.5844 140.459 55.1031 140.525 52.1281 140.613L48.7812 140.7V134.313V127.925L52.2375 128.013C54.8187 128.078 55.8687 128.188 56.5031 128.472ZM63.9844 131.469C65.1656 133.394 66.1937 135.013 66.2594 135.056C66.3469 135.122 67.375 133.547 68.5781 131.556C70.3937 128.581 70.8531 127.969 71.2906 127.969C71.5969 127.969 71.75 128.078 71.6844 128.231C71.6187 128.384 70.4812 130.288 69.1469 132.453L66.7187 136.391V138.513C66.7187 140.503 66.6969 140.656 66.2812 140.656C65.8656 140.656 65.8437 140.503 65.8437 138.513V136.369L63.3281 132.278C61.95 130.025 60.8125 128.144 60.8125 128.078C60.8125 128.013 61.0531 127.969 61.3375 127.969C61.775 127.969 62.1906 128.538 63.9844 131.469ZM78.6625 133.263L82.7969 138.556L82.8625 133.263L82.9062 127.969H83.4531H84L83.9562 134.247C83.8906 139.891 83.8469 140.547 83.5406 140.613C83.2781 140.656 81.8344 138.994 78.9469 135.275L74.7031 129.894L74.6375 135.275C74.5937 140.481 74.5719 140.656 74.1562 140.656C73.7406 140.656 73.7187 140.481 73.7187 134.313C73.7187 128.319 73.7406 127.969 74.1125 127.969C74.375 127.969 75.95 129.806 78.6625 133.263ZM95.6375 134.094C97.1687 137.397 98.4156 140.241 98.4375 140.372C98.4375 140.525 98.2406 140.656 97.9781 140.656C97.6281 140.656 97.3437 140.284 96.7312 138.906L95.9437 137.156H92.3125H88.7031L87.8937 138.906C87.2812 140.263 86.9969 140.656 86.6469 140.656C86.3844 140.656 86.1875 140.569 86.1875 140.459C86.1875 140.263 90.8687 129.959 91.5906 128.559C91.8094 128.122 92.0281 127.969 92.3781 128.013C92.7719 128.056 93.3406 129.128 95.6375 134.094ZM106.597 128.319C107.778 128.713 108.259 129.172 107.887 129.544C107.691 129.741 107.428 129.697 106.816 129.413C104.803 128.45 101.85 128.844 101.172 130.156C100.253 131.906 101.084 132.913 104.125 133.788C107.734 134.816 108.5 135.428 108.5 137.288C108.5 138.556 108.019 139.388 106.881 140.044C106.116 140.459 105.678 140.547 104.016 140.547C102.331 140.547 101.872 140.459 100.975 140C99.75 139.366 99.2906 138.841 99.6625 138.469C99.8375 138.294 100.144 138.381 100.712 138.775C102.944 140.284 106.728 139.913 107.428 138.097C107.953 136.719 107.1 135.647 105.022 135.056C104.344 134.881 103.272 134.575 102.637 134.4C101.937 134.203 101.15 133.766 100.669 133.328C99.925 132.65 99.8594 132.497 99.8594 131.403C99.8594 129.916 100.341 129.172 101.719 128.45C102.9 127.859 105.066 127.794 106.597 128.319ZM122.522 131.556C123.703 133.459 124.709 135.056 124.775 135.122C124.819 135.166 125.759 133.766 126.831 131.972C129.347 127.881 129.325 127.903 129.872 128.013C130.309 128.078 130.112 128.472 127.859 132.125L125.344 136.172V138.403V140.656H124.797H124.25V138.425V136.216L121.8 132.191C120.444 129.981 119.306 128.341 119.262 128.516C119.197 128.778 118.781 128.844 117.009 128.844H114.844L114.8 134.684L114.734 140.547L114.253 140.613L113.75 140.678V134.772V128.844H111.562C109.506 128.844 109.375 128.822 109.375 128.406C109.375 127.969 109.484 127.969 114.887 128.013L120.4 128.078L122.522 131.556Z" fill="white" stroke="white" stroke-width="2" mask="url(#path-1-inside-1_5_21)"/>
<path d="M79.3625 50.4875C80.2812 51.7781 82.8187 53.7687 85.925 55.65C86.6906 56.1094 87.4562 56.7219 87.6531 57.0281C87.9812 57.5312 87.9812 57.7062 87.6531 59.3687C87.1719 61.6656 87.1719 64.0281 87.675 65.5812L88.0469 66.8281L88.1781 63.4375C88.2656 61.5781 88.4406 59.6094 88.5719 59.0625C89.0969 57.0937 88.4844 56.1094 85.6625 54.425C83.9562 53.4187 81.7469 51.9094 80.3906 50.8375C79.0562 49.8094 78.8375 49.7219 79.3625 50.4875Z" fill="white"/>
<path d="M119.131 52.1719C118.737 52.4781 118.803 52.5 119.941 52.5C120.859 52.5 121.187 52.5875 121.187 52.8062C121.187 53.0031 120.816 53.1562 120.116 53.2656C119.525 53.3531 118.847 53.55 118.628 53.725C118.278 53.9875 118.322 53.9875 119 53.8125C120.181 53.4844 121.231 53.55 122.019 54.0312C122.806 54.5125 122.872 54.3812 122.391 53.2437C121.887 52.0625 120.072 51.45 119.131 52.1719Z" fill="white"/>
<path d="M111.169 53.0906C111.497 53.4844 112.678 53.6594 113.531 53.4406C114.231 53.2437 114.166 53.2219 112.612 53.025C111.278 52.85 110.972 52.8719 111.169 53.0906Z" fill="white"/>
<path d="M117.228 53.1781C116.725 53.5938 116.725 53.6156 117.184 53.3969C117.447 53.2656 117.731 53.0469 117.797 52.9375C118.016 52.5875 117.775 52.675 117.228 53.1781Z" fill="white"/>
<path d="M103.731 55.2563C102.813 56.3719 101.653 58.8438 100.866 61.3594C100.494 62.5406 100.231 63.5469 100.275 63.5906C100.319 63.6344 100.713 62.6281 101.15 61.3375C102.025 58.8 102.944 56.8531 103.95 55.3875C104.716 54.2719 104.606 54.1844 103.731 55.2563Z" fill="white"/>
<path d="M78.75 55.1469C79.4281 55.6719 81.8563 57.1156 82.9719 57.6188C84.4594 58.2969 84.0656 57.8375 82.3156 56.8313C78.7063 54.7531 77.6344 54.25 78.75 55.1469Z" fill="white"/>
<path d="M77.5469 59.5656C78.4875 60.1781 80.8937 60.9875 82.9062 61.3812C84.0875 61.6219 82.6875 61.0094 80.0406 60.1562C77.1312 59.1937 76.9125 59.15 77.5469 59.5656Z" fill="white"/>
<path d="M105.175 60.6375C104.103 62.2562 103.797 62.8906 103.272 64.6625C102.681 66.6531 102.681 67.3312 103.272 66.2156C103.513 65.7781 103.797 65.4062 103.906 65.4062C104.016 65.4062 104.169 65.7781 104.256 66.2156C104.431 67.2875 104.978 69.3875 105.066 69.4969C105.109 69.5406 105.219 67.9656 105.284 66.0187C105.35 63.9406 105.547 61.8625 105.766 61.0531C105.941 60.2875 106.072 59.6094 106.006 59.5656C105.963 59.5219 105.591 60.0031 105.175 60.6375Z" fill="white"/>
<path d="M59.9375 61.8844C59.9375 62.0156 60.0469 62.1687 60.1562 62.2344C60.2875 62.3 60.375 62.2562 60.375 62.1469C60.375 61.7969 61.8406 61.8625 62.6281 62.2344L63.3281 62.5844L62.8031 62.125C62.4312 61.7969 61.9937 61.6875 61.1187 61.6875C60.4625 61.6875 59.9375 61.775 59.9375 61.8844Z" fill="white"/>
<path d="M79.2531 64.8813C79.45 65.1 81.8562 65.625 82.4687 65.6031C82.775 65.5813 82.3375 65.4063 81.4844 65.1875C79.8875 64.7719 79.0125 64.6625 79.2531 64.8813Z" fill="white"/>
<path d="M82.8625 70.1531C83.125 70.1969 83.5187 70.1969 83.7375 70.1531C83.9344 70.0875 83.7156 70.0438 83.2344 70.0656C82.7531 70.0656 82.5781 70.1094 82.8625 70.1531Z" fill="white"/>
<path d="M93.5812 75.0313C94.0844 75.25 94.5 75.5344 94.5 75.6438C94.5 75.7531 93.8875 75.9281 93.1437 76.0156L91.7656 76.1906L93.9531 76.4531C96.5344 76.7813 98.0219 77.1094 98.8969 77.5688C99.7937 78.0281 99.6844 77.6344 98.6781 76.7156C97.2562 75.425 95.1781 74.5938 93.4062 74.5938H92.6406L93.5812 75.0313Z" fill="white"/>
<path d="M78.0937 75.9281C75.425 76.65 73.1281 78.4875 71.225 81.375C69.5844 83.8687 68.3156 84.9187 66.1062 85.6406C65.4719 85.8375 64.9687 86.0562 65.0125 86.1C65.1875 86.2531 67.9 85.7281 68.5344 85.4C69.4312 84.9187 69.6719 84.6781 71.6844 82.1406C72.6469 80.9375 74.2 79.2094 75.1625 78.3125C76.6062 76.9781 77.175 76.5844 78.3344 76.1906C79.7344 75.7312 79.5594 75.5344 78.0937 75.9281Z" fill="white"/>
<path d="M106.334 76.4094C106.466 76.8906 106.531 78.6188 106.487 80.2813C106.422 83.1906 106.597 84.0437 106.881 82.2281C106.991 81.6156 107.122 81.375 107.406 81.375C107.691 81.375 107.844 81.6594 108.019 82.4031L108.237 83.4531L108.281 82.4688C108.434 79.6906 107.953 77.7438 106.772 76.3438L106.116 75.5781L106.334 76.4094Z" fill="white"/>
<path d="M117.994 97.3438C118.322 97.4531 118.803 97.7156 119.022 97.9125C119.263 98.1094 119.503 98.2406 119.569 98.175C119.744 97.9781 118.234 97.125 117.775 97.1469C117.513 97.1469 117.578 97.2344 117.994 97.3438Z" fill="white"/>
<path d="M109.156 112.481C106.881 113.641 106.509 116.966 108.478 118.628C110.25 120.116 113.028 119.744 114.188 117.863C115.063 116.419 114.909 114.603 113.816 113.291C112.678 111.956 110.841 111.628 109.156 112.481Z" fill="white"/>
<path d="M62.5625 114.166V116.375H64.05C66.5 116.375 67.9 115.281 67.4625 113.684C67.1344 112.591 66.325 112.153 64.3125 112.044L62.5625 111.934V114.166Z" fill="white"/>
<path d="M84 114.209V116.441L85.9031 116.331C87.6969 116.244 87.8063 116.2 88.4188 115.544C89.1625 114.713 89.2063 113.816 88.5938 113.028C88.0469 112.328 86.9531 112 85.2688 112H84V114.209Z" fill="white"/>
<path d="M49.6562 134.181V139.562H52.4562C54.9281 139.562 55.3656 139.497 56.3281 139.038C57.6406 138.425 58.2312 137.813 58.8219 136.5C60.025 133.875 58.8656 130.725 56.2844 129.5C55.4094 129.084 54.7531 128.975 52.4562 128.888L49.6562 128.778V134.181Z" fill="white"/>
<path d="M90.7156 132.759C89.9062 134.553 89.25 136.084 89.25 136.15C89.25 136.216 90.6281 136.281 92.3125 136.281C93.9969 136.281 95.375 136.216 95.375 136.106C95.375 135.822 92.4437 129.5 92.3125 129.5C92.225 129.5 91.5031 130.966 90.7156 132.759Z" fill="white"/>
</svg>
